<svg width="1600" height="900" viewBox="0 0 1600 900" fill="none" xmlns="http://www.w3.org/2000/svg">
<defs>
  <linearGradient id="b1" x1="0" y1="0" x2="1" y2="1">
    <stop offset="0%" stop-color="#0ea5e9"/>
    <stop offset="100%" stop-color="#2563eb"/>
  </linearGradient>
  <linearGradient id="b2" x1="1" y1="0" x2="0" y2="1">
    <stop offset="0%" stop-color="#22d3ee"/>
    <stop offset="100%" stop-color="#38bdf8"/>
  </linearGradient>
  <filter id="glow" x="-50%" y="-50%" width="200%" height="200%">
    <feGaussianBlur stdDeviation="8" result="blur"/>
    <feMerge>
      <feMergeNode in="blur"/>
      <feMergeNode in="SourceGraphic"/>
    </feMerge>
  </filter>
</defs>
<rect width="1600" height="900" fill="#071320"/>
<g opacity="0.45">
  <path d="M200 200h80v40h100v40h120v60h140" stroke="url(#b1)" stroke-width="2"/>
  <circle cx="200" cy="200" r="4" fill="#22d3ee" filter="url(#glow)"/>
  <circle cx="280" cy="200" r="4" fill="#38bdf8" filter="url(#glow)"/>
  <circle cx="380" cy="240" r="4" fill="#22d3ee" filter="url(#glow)"/>
  <circle cx="500" cy="280" r="4" fill="#38bdf8" filter="url(#glow)"/>
  <circle cx="620" cy="340" r="4" fill="#22d3ee" filter="url(#glow)"/>
</g>
<g opacity="0.35">
  <path d="M1400 300h-90v-40h-120v-40h-140v-60h-160" stroke="url(#b2)" stroke-width="2"/>
  <circle cx="1400" cy="300" r="4" fill="#22d3ee" filter="url(#glow)"/>
  <circle cx="1310" cy="300" r="4" fill="#38bdf8" filter="url(#glow)"/>
  <circle cx="1190" cy="260" r="4" fill="#22d3ee" filter="url(#glow)"/>
  <circle cx="1050" cy="220" r="4" fill="#38bdf8" filter="url(#glow)"/>
  <circle cx="910" cy="160" r="4" fill="#22d3ee" filter="url(#glow)"/>
</g>
<g opacity="0.25">
  <rect x="240" y="520" width="1120" height="2" fill="#1f9cf0"/>
  <rect x="240" y="560" width="1120" height="2" fill="#1f9cf0"/>
  <rect x="240" y="600" width="1120" height="2" fill="#1f9cf0"/>
  <rect x="240" y="640" width="1120" height="2" fill="#1f9cf0"/>
</g>
</svg>
